<svg width="97" height="40" viewBox="0 0 97 40" fill="none" xmlns="http://www.w3.org/2000/svg">
<g clip-path="url(#clip0_0_852)">
<path d="M29.6667 30C29.4864 30 29.3109 29.9415 29.1667 29.8333L25.8333 27.3333C25.7298 27.2557 25.6458 27.1551 25.588 27.0393C25.5301 26.9236 25.5 26.796 25.5 26.6667V21.9833L19.6533 15.4058C19.2381 14.9374 18.967 14.359 18.8726 13.7402C18.7781 13.1214 18.8644 12.4885 19.1211 11.9175C19.3777 11.3466 19.7938 10.8619 20.3193 10.5217C20.8448 10.1816 21.4574 10.0004 22.0833 10H33.9167C34.5426 10.0007 35.155 10.1822 35.6803 10.5226C36.2055 10.863 36.6214 11.3478 36.8777 11.9188C37.1341 12.4898 37.2201 13.1227 37.1255 13.7415C37.0308 14.3602 36.7595 14.9384 36.3442 15.4067L30.5 21.9833V29.1667C30.5 29.3877 30.4122 29.5996 30.2559 29.7559C30.0996 29.9122 29.8877 30 29.6667 30V30ZM27.1667 26.25L28.8333 27.5V21.6667C28.8335 21.4626 28.9085 21.2657 29.0442 21.1133L35.1008 14.2992C35.3028 14.0709 35.4346 13.7892 35.4804 13.4879C35.5262 13.1866 35.484 12.8784 35.359 12.6005C35.2339 12.3225 35.0313 12.0865 34.7755 11.9209C34.5197 11.7553 34.2214 11.667 33.9167 11.6667H22.0833C21.7787 11.6671 21.4807 11.7555 21.225 11.9211C20.9693 12.0867 20.7668 12.3225 20.6418 12.6003C20.5168 12.8781 20.4746 13.186 20.5203 13.4872C20.5659 13.7884 20.6975 14.07 20.8992 14.2983L26.9567 21.1133C27.092 21.2659 27.1667 21.4627 27.1667 21.6667V26.25Z" fill="#7C818D"/>
</g>
<path d="M46.9395 25H45.3125V15.0059H50.959V16.3867H46.9395V19.5039H50.6992V20.8779H46.9395V25ZM54.2197 17.4326V25H52.6133V17.4326H54.2197ZM53.4268 14.5342C53.6729 14.5342 53.8848 14.6003 54.0625 14.7324C54.2448 14.8646 54.3359 15.0924 54.3359 15.416C54.3359 15.735 54.2448 15.9629 54.0625 16.0996C53.8848 16.2318 53.6729 16.2979 53.4268 16.2979C53.1715 16.2979 52.9551 16.2318 52.7773 16.0996C52.6042 15.9629 52.5176 15.735 52.5176 15.416C52.5176 15.0924 52.6042 14.8646 52.7773 14.7324C52.9551 14.6003 53.1715 14.5342 53.4268 14.5342ZM58.1367 25H56.5234V14.3633H58.1367V25ZM63.25 23.8379C63.4596 23.8379 63.667 23.8197 63.8721 23.7832C64.0771 23.7422 64.264 23.6943 64.4326 23.6396V24.8564C64.2549 24.9339 64.0247 25 63.7422 25.0547C63.4596 25.1094 63.1657 25.1367 62.8604 25.1367C62.432 25.1367 62.0469 25.0661 61.7051 24.9248C61.3633 24.779 61.0921 24.5306 60.8916 24.1797C60.6911 23.8288 60.5908 23.3434 60.5908 22.7236V18.6562H59.5586V17.9385L60.666 17.3711L61.1924 15.751H62.2041V17.4326H64.3711V18.6562H62.2041V22.7031C62.2041 23.0859 62.2998 23.3708 62.4912 23.5576C62.6826 23.7445 62.9355 23.8379 63.25 23.8379ZM68.9854 17.2891C69.6598 17.2891 70.2386 17.4281 70.7217 17.7061C71.2048 17.984 71.5762 18.3783 71.8359 18.8887C72.0957 19.3991 72.2256 20.0098 72.2256 20.7207V21.582H67.1738C67.1921 22.3158 67.388 22.8809 67.7617 23.2773C68.14 23.6738 68.6686 23.8721 69.3477 23.8721C69.8307 23.8721 70.2637 23.8265 70.6465 23.7354C71.0339 23.6396 71.4326 23.5007 71.8428 23.3184V24.624C71.4645 24.8018 71.0794 24.9316 70.6875 25.0137C70.2956 25.0957 69.8262 25.1367 69.2793 25.1367C68.5365 25.1367 67.8825 24.9932 67.3174 24.7061C66.7568 24.4144 66.3171 23.9814 65.998 23.4072C65.6836 22.833 65.5264 22.1198 65.5264 21.2676C65.5264 20.4199 65.6699 19.6999 65.957 19.1074C66.2441 18.515 66.6475 18.0638 67.167 17.7539C67.6865 17.444 68.2926 17.2891 68.9854 17.2891ZM68.9854 18.499C68.4795 18.499 68.0693 18.6631 67.7549 18.9912C67.445 19.3193 67.2627 19.8001 67.208 20.4336H70.6533C70.6488 20.0553 70.585 19.7204 70.4619 19.4287C70.3434 19.137 70.1611 18.9092 69.915 18.7451C69.6735 18.5811 69.3636 18.499 68.9854 18.499ZM77.8721 17.2891C77.9997 17.2891 78.1387 17.2959 78.2891 17.3096C78.4395 17.3232 78.5693 17.3415 78.6787 17.3643L78.5283 18.8682C78.4326 18.8408 78.3141 18.8203 78.1729 18.8066C78.0361 18.793 77.9131 18.7861 77.8037 18.7861C77.5166 18.7861 77.2432 18.834 76.9834 18.9297C76.7236 19.0208 76.4935 19.1621 76.293 19.3535C76.0924 19.5404 75.9352 19.7751 75.8213 20.0576C75.7074 20.3402 75.6504 20.6683 75.6504 21.042V25H74.0371V17.4326H75.2949L75.5137 18.7656H75.5889C75.7393 18.4967 75.9261 18.2507 76.1494 18.0273C76.3727 17.804 76.6279 17.6263 76.915 17.4941C77.2067 17.3574 77.5257 17.2891 77.8721 17.2891Z" fill="#7C818D"/>
<rect x="0.5" y="0.5" width="96" height="39" rx="7.5" stroke="#B6BCC9"/>
<defs>
<clipPath id="clip0_0_852">
<rect width="20" height="20" fill="white" transform="translate(18 10)"/>
</clipPath>
</defs>
</svg>
