<svg width="143" height="40" viewBox="0 0 143 40" fill="none" xmlns="http://www.w3.org/2000/svg">
<rect width="143" height="40" rx="8" fill="#266AEB"/>
<path d="M37.6667 18.6667H32.3333V13.3333C32.3333 12.9797 32.1929 12.6406 31.9428 12.3905C31.6928 12.1405 31.3536 12 31 12C30.6464 12 30.3072 12.1405 30.0572 12.3905C29.8071 12.6406 29.6667 12.9797 29.6667 13.3333V18.6667H24.3333C23.9797 18.6667 23.6406 18.8071 23.3905 19.0572C23.1405 19.3072 23 19.6464 23 20C23 20.3536 23.1405 20.6928 23.3905 20.9428C23.6406 21.1929 23.9797 21.3333 24.3333 21.3333H29.6667V26.6667C29.6667 27.0203 29.8071 27.3594 30.0572 27.6095C30.3072 27.8595 30.6464 28 31 28C31.3536 28 31.6928 27.8595 31.9428 27.6095C32.1929 27.3594 32.3333 27.0203 32.3333 26.6667V21.3333H37.6667C38.0203 21.3333 38.3594 21.1929 38.6095 20.9428C38.8595 20.6928 39 20.3536 39 20C39 19.6464 38.8595 19.3072 38.6095 19.0572C38.3594 18.8071 38.0203 18.6667 37.6667 18.6667Z" fill="white"/>
<path d="M51.1426 19.5654L53.5146 15.0059H55.2852L51.9629 21.1172V25H50.3291V21.1787L47 15.0059H48.7842L51.1426 19.5654ZM59.4482 17.2891C60.1227 17.2891 60.7015 17.4281 61.1846 17.7061C61.6676 17.984 62.0391 18.3783 62.2988 18.8887C62.5586 19.3991 62.6885 20.0098 62.6885 20.7207V21.582H57.6367C57.6549 22.3158 57.8509 22.8809 58.2246 23.2773C58.6029 23.6738 59.1315 23.8721 59.8105 23.8721C60.2936 23.8721 60.7266 23.8265 61.1094 23.7354C61.4967 23.6396 61.8955 23.5007 62.3057 23.3184V24.624C61.9274 24.8018 61.5423 24.9316 61.1504 25.0137C60.7585 25.0957 60.2891 25.1367 59.7422 25.1367C58.9993 25.1367 58.3454 24.9932 57.7803 24.7061C57.2197 24.4144 56.7799 23.9814 56.4609 23.4072C56.1465 22.833 55.9893 22.1198 55.9893 21.2676C55.9893 20.4199 56.1328 19.6999 56.4199 19.1074C56.707 18.515 57.1104 18.0638 57.6299 17.7539C58.1494 17.444 58.7555 17.2891 59.4482 17.2891ZM59.4482 18.499C58.9424 18.499 58.5322 18.6631 58.2178 18.9912C57.9079 19.3193 57.7256 19.8001 57.6709 20.4336H61.1162C61.1117 20.0553 61.0479 19.7204 60.9248 19.4287C60.8063 19.137 60.624 18.9092 60.3779 18.7451C60.1364 18.5811 59.8265 18.499 59.4482 18.499ZM68.4443 17.2891C69.2965 17.2891 69.9596 17.5101 70.4336 17.9521C70.9121 18.3896 71.1514 19.0938 71.1514 20.0645V25H69.5449V20.3652C69.5449 19.7773 69.4242 19.3376 69.1826 19.0459C68.9411 18.7497 68.5674 18.6016 68.0615 18.6016C67.3278 18.6016 66.8174 18.8271 66.5303 19.2783C66.2477 19.7295 66.1064 20.3835 66.1064 21.2402V25H64.5V17.4326H65.751L65.9766 18.458H66.0654C66.2295 18.1937 66.4323 17.9772 66.6738 17.8086C66.9199 17.6354 67.1934 17.5055 67.4941 17.4189C67.7995 17.3324 68.1162 17.2891 68.4443 17.2891ZM75.0068 17.4326V25H73.4004V17.4326H75.0068ZM74.2139 14.5342C74.46 14.5342 74.6719 14.6003 74.8496 14.7324C75.0319 14.8646 75.123 15.0924 75.123 15.416C75.123 15.735 75.0319 15.9629 74.8496 16.0996C74.6719 16.2318 74.46 16.2979 74.2139 16.2979C73.9587 16.2979 73.7422 16.2318 73.5645 16.0996C73.3913 15.9629 73.3047 15.735 73.3047 15.416C73.3047 15.0924 73.3913 14.8646 73.5645 14.7324C73.7422 14.6003 73.9587 14.5342 74.2139 14.5342ZM85.7529 28.3564V25.1436C85.7529 24.9613 85.7575 24.763 85.7666 24.5488C85.7803 24.3346 85.8008 24.1387 85.8281 23.9609H85.7461C85.541 24.2936 85.2562 24.5739 84.8916 24.8018C84.527 25.0251 84.0508 25.1367 83.4629 25.1367C82.5742 25.1367 81.8587 24.8086 81.3164 24.1523C80.7741 23.4915 80.5029 22.5163 80.5029 21.2266C80.5029 20.3698 80.6283 19.6497 80.8789 19.0664C81.1296 18.4831 81.4805 18.041 81.9316 17.7402C82.3874 17.4395 82.916 17.2891 83.5176 17.2891C84.0964 17.2891 84.5658 17.403 84.9258 17.6309C85.2904 17.8542 85.582 18.1299 85.8008 18.458H85.8555L86.0332 17.4326H87.3662V28.3564H85.7529ZM83.9414 23.8447C84.3971 23.8447 84.7617 23.7581 85.0352 23.585C85.3086 23.4118 85.5068 23.1497 85.6299 22.7988C85.7529 22.4434 85.819 22.0036 85.8281 21.4795V21.2334C85.8281 20.3766 85.6891 19.7249 85.4111 19.2783C85.1331 18.8317 84.6387 18.6084 83.9277 18.6084C83.3262 18.6084 82.8796 18.8431 82.5879 19.3125C82.2962 19.7773 82.1504 20.4245 82.1504 21.2539C82.1504 22.0924 82.2962 22.735 82.5879 23.1816C82.8841 23.6237 83.3353 23.8447 83.9414 23.8447ZM92.6367 17.2891C93.5938 17.2891 94.3161 17.501 94.8037 17.9248C95.2959 18.3486 95.542 19.0094 95.542 19.9072V25H94.4004L94.0928 23.9268H94.0381C93.8239 24.2002 93.6029 24.4258 93.375 24.6035C93.1471 24.7812 92.8828 24.9134 92.582 25C92.2858 25.0911 91.9235 25.1367 91.4951 25.1367C91.0439 25.1367 90.6406 25.0547 90.2852 24.8906C89.9297 24.722 89.6494 24.4668 89.4443 24.125C89.2393 23.7832 89.1367 23.3503 89.1367 22.8262C89.1367 22.0469 89.4261 21.4613 90.0049 21.0693C90.5882 20.6774 91.4678 20.4609 92.6436 20.4199L93.9561 20.3721V19.9756C93.9561 19.4515 93.833 19.0778 93.5869 18.8545C93.3454 18.6312 93.0036 18.5195 92.5615 18.5195C92.1833 18.5195 91.8164 18.5742 91.4609 18.6836C91.1055 18.793 90.7591 18.9274 90.4219 19.0869L89.9023 17.9521C90.2715 17.7562 90.6908 17.5967 91.1602 17.4736C91.6341 17.3506 92.1263 17.2891 92.6367 17.2891ZM93.9492 21.3838L92.9717 21.418C92.1696 21.4453 91.6068 21.582 91.2832 21.8281C90.9596 22.0742 90.7979 22.4115 90.7979 22.8398C90.7979 23.2135 90.9095 23.487 91.1328 23.6602C91.3561 23.8288 91.6501 23.9131 92.0146 23.9131C92.5706 23.9131 93.0309 23.7559 93.3955 23.4414C93.7646 23.1224 93.9492 22.6553 93.9492 22.04V21.3838ZM99.3975 17.4326V25H97.791V17.4326H99.3975ZM98.6045 14.5342C98.8506 14.5342 99.0625 14.6003 99.2402 14.7324C99.4225 14.8646 99.5137 15.0924 99.5137 15.416C99.5137 15.735 99.4225 15.9629 99.2402 16.0996C99.0625 16.2318 98.8506 16.2979 98.6045 16.2979C98.3493 16.2979 98.1328 16.2318 97.9551 16.0996C97.7819 15.9629 97.6953 15.735 97.6953 15.416C97.6953 15.0924 97.7819 14.8646 97.9551 14.7324C98.1328 14.6003 98.3493 14.5342 98.6045 14.5342ZM110.253 17.2891C111.101 17.2891 111.739 17.5078 112.167 17.9453C112.6 18.3828 112.816 19.0846 112.816 20.0508V25H111.21V20.3379C111.21 19.7637 111.098 19.3307 110.875 19.0391C110.652 18.7474 110.312 18.6016 109.856 18.6016C109.218 18.6016 108.758 18.8066 108.476 19.2168C108.198 19.6224 108.059 20.2126 108.059 20.9873V25H106.452V20.3379C106.452 19.9551 106.402 19.6361 106.302 19.3809C106.206 19.1211 106.058 18.9274 105.857 18.7998C105.657 18.6676 105.404 18.6016 105.099 18.6016C104.657 18.6016 104.303 18.7018 104.039 18.9023C103.779 19.1029 103.592 19.3991 103.479 19.791C103.365 20.1784 103.308 20.6546 103.308 21.2197V25H101.701V17.4326H102.952L103.178 18.4512H103.267C103.422 18.1868 103.613 17.9704 103.841 17.8018C104.073 17.6286 104.331 17.501 104.613 17.4189C104.896 17.3324 105.19 17.2891 105.495 17.2891C106.06 17.2891 106.536 17.3893 106.924 17.5898C107.311 17.7858 107.601 18.0866 107.792 18.4922H107.915C108.152 18.082 108.482 17.779 108.906 17.583C109.33 17.387 109.779 17.2891 110.253 17.2891ZM117.526 17.2891C118.269 17.2891 118.921 17.4349 119.481 17.7266C120.047 18.0137 120.486 18.4443 120.801 19.0186C121.115 19.5928 121.272 20.306 121.272 21.1582C121.272 22.0059 121.129 22.7259 120.842 23.3184C120.555 23.9108 120.151 24.362 119.632 24.6719C119.117 24.9818 118.513 25.1367 117.82 25.1367C117.15 25.1367 116.572 25 116.084 24.7266C115.596 24.4486 115.223 24.0521 114.963 23.5371C114.703 23.0221 114.573 22.4115 114.573 21.7051V20.8506H119.632C119.614 20.1169 119.415 19.5518 119.037 19.1553C118.659 18.7542 118.13 18.5537 117.451 18.5537C116.973 18.5537 116.54 18.5993 116.152 18.6904C115.77 18.7816 115.373 18.9229 114.963 19.1143V17.8018C115.341 17.6286 115.726 17.501 116.118 17.4189C116.51 17.3324 116.979 17.2891 117.526 17.2891ZM119.598 21.999H116.152C116.157 22.3727 116.218 22.7054 116.337 22.9971C116.455 23.2887 116.638 23.5166 116.884 23.6807C117.13 23.8447 117.442 23.9268 117.82 23.9268C118.326 23.9268 118.736 23.7627 119.051 23.4346C119.365 23.1064 119.548 22.6279 119.598 21.999Z" fill="white"/>
</svg>
