<svg width="142" height="70" viewBox="0 0 142 70" fill="none" xmlns="http://www.w3.org/2000/svg">
<path d="M5.7627 15L2.40625 6.1543H2.35156C2.36979 6.34115 2.38574 6.56901 2.39941 6.83789C2.41309 7.10677 2.42448 7.40072 2.43359 7.71973C2.44271 8.03418 2.44727 8.35547 2.44727 8.68359V15H1.36719V5.00586H3.08984L6.25488 13.3184H6.30273L9.51562 5.00586H11.2246V15H10.0762V8.60156C10.0762 8.30534 10.0807 8.00911 10.0898 7.71289C10.099 7.41211 10.1104 7.12956 10.124 6.86523C10.1377 6.59635 10.1514 6.36393 10.165 6.16797H10.1104L6.71289 15H5.7627ZM16.0918 7.37109C16.8118 7.37109 17.4408 7.51921 17.9785 7.81543C18.5163 8.1071 18.9333 8.53776 19.2295 9.10742C19.5257 9.67708 19.6738 10.3743 19.6738 11.1992C19.6738 12.0059 19.5371 12.7031 19.2637 13.291C18.9948 13.8789 18.612 14.3346 18.1152 14.6582C17.623 14.9772 17.042 15.1367 16.3721 15.1367C15.734 15.1367 15.1849 14.9954 14.7246 14.7129C14.2689 14.4303 13.9202 14.0339 13.6787 13.5234C13.4372 13.013 13.3164 12.4206 13.3164 11.7461V11.042H18.498C18.4798 10.167 18.2588 9.49935 17.835 9.03906C17.4157 8.57422 16.8187 8.3418 16.0439 8.3418C15.5745 8.3418 15.1576 8.38509 14.793 8.47168C14.4284 8.55371 14.0479 8.68132 13.6514 8.85449V7.84961C14.0296 7.68555 14.4056 7.56478 14.7793 7.4873C15.153 7.40983 15.5905 7.37109 16.0918 7.37109ZM18.4707 11.958H14.5127C14.5173 12.4001 14.5856 12.792 14.7178 13.1338C14.8499 13.471 15.0527 13.7354 15.3262 13.9268C15.6042 14.1136 15.9574 14.207 16.3857 14.207C16.9964 14.207 17.4818 14.0088 17.8418 13.6123C18.2018 13.2158 18.4115 12.6644 18.4707 11.958ZM22.7842 4.36328V7.02246C22.7842 7.3278 22.7751 7.62402 22.7568 7.91113C22.7432 8.19824 22.7318 8.42155 22.7227 8.58105H22.7842C22.9893 8.24382 23.2855 7.95898 23.6729 7.72656C24.0602 7.49414 24.5547 7.37793 25.1562 7.37793C26.0951 7.37793 26.8424 7.70378 27.3984 8.35547C27.959 9.0026 28.2393 9.96647 28.2393 11.2471C28.2393 12.0902 28.1117 12.8011 27.8564 13.3799C27.6012 13.9587 27.2412 14.3962 26.7764 14.6924C26.3115 14.9886 25.7624 15.1367 25.1289 15.1367C24.5365 15.1367 24.0488 15.0273 23.666 14.8086C23.2878 14.5853 22.9961 14.3141 22.791 13.9951H22.7021L22.4697 15H21.6494V4.36328H22.7842ZM24.9717 8.32812C24.4294 8.32812 23.9987 8.43522 23.6797 8.64941C23.3607 8.85905 23.1305 9.17806 22.9893 9.60645C22.8525 10.0303 22.7842 10.568 22.7842 11.2197V11.2812C22.7842 12.2246 22.9414 12.9469 23.2559 13.4482C23.5703 13.945 24.1423 14.1934 24.9717 14.1934C25.6689 14.1934 26.1908 13.9382 26.5371 13.4277C26.888 12.9173 27.0635 12.1882 27.0635 11.2402C27.0635 10.2741 26.8903 9.5472 26.5439 9.05957C26.2021 8.57194 25.6781 8.32812 24.9717 8.32812ZM31.3633 15H30.2217V4.36328H31.3633V15ZM36.0664 7.37109C36.7865 7.37109 37.4154 7.51921 37.9531 7.81543C38.4909 8.1071 38.9079 8.53776 39.2041 9.10742C39.5003 9.67708 39.6484 10.3743 39.6484 11.1992C39.6484 12.0059 39.5117 12.7031 39.2383 13.291C38.9694 13.8789 38.5866 14.3346 38.0898 14.6582C37.5977 14.9772 37.0166 15.1367 36.3467 15.1367C35.7087 15.1367 35.1595 14.9954 34.6992 14.7129C34.2435 14.4303 33.8949 14.0339 33.6533 13.5234C33.4118 13.013 33.291 12.4206 33.291 11.7461V11.042H38.4727C38.4544 10.167 38.2334 9.49935 37.8096 9.03906C37.3903 8.57422 36.7933 8.3418 36.0186 8.3418C35.5492 8.3418 35.1322 8.38509 34.7676 8.47168C34.403 8.55371 34.0225 8.68132 33.626 8.85449V7.84961C34.0042 7.68555 34.3802 7.56478 34.7539 7.4873C35.1276 7.40983 35.5651 7.37109 36.0664 7.37109ZM38.4453 11.958H34.4873C34.4919 12.4001 34.5602 12.792 34.6924 13.1338C34.8245 13.471 35.0273 13.7354 35.3008 13.9268C35.5788 14.1136 35.932 14.207 36.3604 14.207C36.971 14.207 37.4564 14.0088 37.8164 13.6123C38.1764 13.2158 38.3861 12.6644 38.4453 11.958ZM43.7158 18.3633C42.7314 18.3633 41.9727 18.1787 41.4395 17.8096C40.9062 17.445 40.6396 16.9323 40.6396 16.2715C40.6396 15.8021 40.7878 15.401 41.084 15.0684C41.3848 14.7357 41.7995 14.5146 42.3281 14.4053C42.1322 14.3141 41.9635 14.1774 41.8223 13.9951C41.6855 13.8128 41.6172 13.6032 41.6172 13.3662C41.6172 13.0928 41.6924 12.8535 41.8428 12.6484C41.9977 12.4388 42.2324 12.2383 42.5469 12.0469C42.1549 11.8874 41.8359 11.6185 41.5898 11.2402C41.3483 10.8574 41.2275 10.4131 41.2275 9.90723C41.2275 9.36947 41.3392 8.91146 41.5625 8.5332C41.7858 8.15039 42.1094 7.85872 42.5332 7.6582C42.957 7.45768 43.4697 7.35742 44.0713 7.35742C44.2035 7.35742 44.3356 7.36426 44.4678 7.37793C44.6045 7.38704 44.7344 7.40299 44.8574 7.42578C44.9805 7.44401 45.0876 7.4668 45.1787 7.49414H47.749V8.22559L46.3682 8.39648C46.5049 8.57422 46.6188 8.78841 46.71 9.03906C46.8011 9.28971 46.8467 9.56771 46.8467 9.87305C46.8467 10.6204 46.5938 11.2152 46.0879 11.6572C45.582 12.0947 44.887 12.3135 44.0029 12.3135C43.7933 12.3135 43.5791 12.2952 43.3604 12.2588C43.137 12.3818 42.9661 12.5186 42.8477 12.6689C42.7337 12.8193 42.6768 12.9925 42.6768 13.1885C42.6768 13.3343 42.7201 13.4505 42.8066 13.5371C42.8978 13.6237 43.0277 13.6875 43.1963 13.7285C43.3649 13.765 43.5677 13.7832 43.8047 13.7832H45.124C45.9398 13.7832 46.5641 13.9541 46.9971 14.2959C47.4346 14.6377 47.6533 15.1367 47.6533 15.793C47.6533 16.6224 47.3161 17.2581 46.6416 17.7002C45.9671 18.1423 44.9919 18.3633 43.7158 18.3633ZM43.75 17.4746C44.3698 17.4746 44.8825 17.4108 45.2881 17.2832C45.6982 17.1602 46.0036 16.9801 46.2041 16.7432C46.4092 16.5107 46.5117 16.2327 46.5117 15.9092C46.5117 15.6084 46.4434 15.3805 46.3066 15.2256C46.1699 15.0752 45.9694 14.9749 45.7051 14.9248C45.4408 14.8701 45.1172 14.8428 44.7344 14.8428H43.4355C43.0983 14.8428 42.8044 14.8952 42.5537 15C42.3031 15.1048 42.1094 15.2598 41.9727 15.4648C41.8405 15.6699 41.7744 15.9251 41.7744 16.2305C41.7744 16.6361 41.9453 16.9437 42.2871 17.1533C42.6289 17.3675 43.1165 17.4746 43.75 17.4746ZM44.0439 11.4863C44.5863 11.4863 44.9941 11.3496 45.2676 11.0762C45.541 10.8027 45.6777 10.404 45.6777 9.87988C45.6777 9.31934 45.5387 8.90007 45.2607 8.62207C44.9827 8.33952 44.5726 8.19824 44.0303 8.19824C43.5107 8.19824 43.1097 8.34408 42.8271 8.63574C42.5492 8.92285 42.4102 9.3444 42.4102 9.90039C42.4102 10.4108 42.5514 10.8027 42.834 11.0762C43.1165 11.3496 43.5199 11.4863 44.0439 11.4863ZM46.1631 4.6709C46.1312 5.04004 46.0264 5.36361 45.8486 5.6416C45.6755 5.91504 45.4339 6.12923 45.124 6.28418C44.8141 6.43913 44.4404 6.5166 44.0029 6.5166C43.333 6.5166 42.8249 6.35026 42.4785 6.01758C42.1367 5.6849 41.9476 5.236 41.9111 4.6709H42.6221C42.6494 4.92611 42.7201 5.11979 42.834 5.25195C42.9479 5.38411 43.1051 5.47526 43.3057 5.52539C43.5062 5.57096 43.7477 5.59375 44.0303 5.59375C44.2809 5.59375 44.5065 5.56868 44.707 5.51855C44.9076 5.46387 45.0716 5.37044 45.1992 5.23828C45.3268 5.10156 45.4066 4.91243 45.4385 4.6709H46.1631ZM55.665 7.38477C56.5583 7.38477 57.2214 7.58529 57.6543 7.98633C58.0872 8.38737 58.3037 9.02767 58.3037 9.90723V15H57.4766L57.2578 13.8926H57.2031C56.9935 14.166 56.7747 14.3962 56.5469 14.583C56.319 14.7653 56.0547 14.9043 55.7539 15C55.4577 15.0911 55.0931 15.1367 54.6602 15.1367C54.2044 15.1367 53.7988 15.057 53.4434 14.8975C53.0924 14.738 52.8145 14.4964 52.6094 14.1729C52.4089 13.8493 52.3086 13.4391 52.3086 12.9424C52.3086 12.195 52.6048 11.6208 53.1973 11.2197C53.7897 10.8187 54.6921 10.5999 55.9043 10.5635L57.1963 10.5088V10.0508C57.1963 9.40365 57.0573 8.9502 56.7793 8.69043C56.5013 8.43066 56.1094 8.30078 55.6035 8.30078C55.2116 8.30078 54.8379 8.35775 54.4824 8.47168C54.127 8.58561 53.7897 8.72005 53.4707 8.875L53.1221 8.01367C53.4593 7.84049 53.8467 7.69238 54.2842 7.56934C54.7217 7.44629 55.182 7.38477 55.665 7.38477ZM57.1826 11.3086L56.041 11.3564C55.1068 11.3929 54.4482 11.5456 54.0654 11.8145C53.6826 12.0833 53.4912 12.4639 53.4912 12.9561C53.4912 13.3844 53.6211 13.7012 53.8809 13.9062C54.1406 14.1113 54.4847 14.2139 54.9131 14.2139C55.5785 14.2139 56.123 14.0293 56.5469 13.6602C56.9707 13.291 57.1826 12.7373 57.1826 11.999V11.3086ZM64.0459 7.37109C64.1963 7.37109 64.3535 7.38021 64.5176 7.39844C64.6816 7.41211 64.8275 7.43262 64.9551 7.45996L64.8115 8.5127C64.6885 8.48079 64.5518 8.45573 64.4014 8.4375C64.251 8.41927 64.1097 8.41016 63.9775 8.41016C63.6768 8.41016 63.3919 8.47168 63.123 8.59473C62.8587 8.71322 62.6263 8.88639 62.4258 9.11426C62.2253 9.33757 62.068 9.60872 61.9541 9.92773C61.8402 10.2422 61.7832 10.5931 61.7832 10.9805V15H60.6416V7.50781H61.585L61.708 8.88867H61.7559C61.9108 8.61068 62.0977 8.35775 62.3164 8.12988C62.5352 7.89746 62.7881 7.71289 63.0752 7.57617C63.3669 7.43945 63.6904 7.37109 64.0459 7.37109ZM69.1729 7.38477C70.0661 7.38477 70.7292 7.58529 71.1621 7.98633C71.5951 8.38737 71.8115 9.02767 71.8115 9.90723V15H70.9844L70.7656 13.8926H70.7109C70.5013 14.166 70.2826 14.3962 70.0547 14.583C69.8268 14.7653 69.5625 14.9043 69.2617 15C68.9655 15.0911 68.6009 15.1367 68.168 15.1367C67.7122 15.1367 67.3066 15.057 66.9512 14.8975C66.6003 14.738 66.3223 14.4964 66.1172 14.1729C65.9167 13.8493 65.8164 13.4391 65.8164 12.9424C65.8164 12.195 66.1126 11.6208 66.7051 11.2197C67.2975 10.8187 68.1999 10.5999 69.4121 10.5635L70.7041 10.5088V10.0508C70.7041 9.40365 70.5651 8.9502 70.2871 8.69043C70.0091 8.43066 69.6172 8.30078 69.1113 8.30078C68.7194 8.30078 68.3457 8.35775 67.9902 8.47168C67.6348 8.58561 67.2975 8.72005 66.9785 8.875L66.6299 8.01367C66.9671 7.84049 67.3545 7.69238 67.792 7.56934C68.2295 7.44629 68.6898 7.38477 69.1729 7.38477ZM70.6904 11.3086L69.5488 11.3564C68.6146 11.3929 67.9561 11.5456 67.5732 11.8145C67.1904 12.0833 66.999 12.4639 66.999 12.9561C66.999 13.3844 67.1289 13.7012 67.3887 13.9062C67.6484 14.1113 67.9925 14.2139 68.4209 14.2139C69.0863 14.2139 69.6309 14.0293 70.0547 13.6602C70.4785 13.291 70.6904 12.7373 70.6904 11.999V11.3086ZM75.291 15H74.1494V4.36328H75.291V15ZM78.8252 15H77.6904V7.50781H78.8252V15ZM83.3232 18.3633C82.3389 18.3633 81.5801 18.1787 81.0469 17.8096C80.5137 17.445 80.2471 16.9323 80.2471 16.2715C80.2471 15.8021 80.3952 15.401 80.6914 15.0684C80.9922 14.7357 81.4069 14.5146 81.9355 14.4053C81.7396 14.3141 81.571 14.1774 81.4297 13.9951C81.293 13.8128 81.2246 13.6032 81.2246 13.3662C81.2246 13.0928 81.2998 12.8535 81.4502 12.6484C81.6051 12.4388 81.8398 12.2383 82.1543 12.0469C81.7624 11.8874 81.4434 11.6185 81.1973 11.2402C80.9557 10.8574 80.835 10.4131 80.835 9.90723C80.835 9.36947 80.9466 8.91146 81.1699 8.5332C81.3932 8.15039 81.7168 7.85872 82.1406 7.6582C82.5645 7.45768 83.0771 7.35742 83.6787 7.35742C83.8109 7.35742 83.943 7.36426 84.0752 7.37793C84.2119 7.38704 84.3418 7.40299 84.4648 7.42578C84.5879 7.44401 84.695 7.4668 84.7861 7.49414H87.3564V8.22559L85.9756 8.39648C86.1123 8.57422 86.2262 8.78841 86.3174 9.03906C86.4085 9.28971 86.4541 9.56771 86.4541 9.87305C86.4541 10.6204 86.2012 11.2152 85.6953 11.6572C85.1895 12.0947 84.4945 12.3135 83.6104 12.3135C83.4007 12.3135 83.1865 12.2952 82.9678 12.2588C82.7445 12.3818 82.5736 12.5186 82.4551 12.6689C82.3411 12.8193 82.2842 12.9925 82.2842 13.1885C82.2842 13.3343 82.3275 13.4505 82.4141 13.5371C82.5052 13.6237 82.6351 13.6875 82.8037 13.7285C82.9723 13.765 83.1751 13.7832 83.4121 13.7832H84.7314C85.5472 13.7832 86.1715 13.9541 86.6045 14.2959C87.042 14.6377 87.2607 15.1367 87.2607 15.793C87.2607 16.6224 86.9235 17.2581 86.249 17.7002C85.5745 18.1423 84.5993 18.3633 83.3232 18.3633ZM83.3574 17.4746C83.9772 17.4746 84.4899 17.4108 84.8955 17.2832C85.3057 17.1602 85.611 16.9801 85.8115 16.7432C86.0166 16.5107 86.1191 16.2327 86.1191 15.9092C86.1191 15.6084 86.0508 15.3805 85.9141 15.2256C85.7773 15.0752 85.5768 14.9749 85.3125 14.9248C85.0482 14.8701 84.7246 14.8428 84.3418 14.8428H83.043C82.7057 14.8428 82.4118 14.8952 82.1611 15C81.9105 15.1048 81.7168 15.2598 81.5801 15.4648C81.4479 15.6699 81.3818 15.9251 81.3818 16.2305C81.3818 16.6361 81.5527 16.9437 81.8945 17.1533C82.2363 17.3675 82.724 17.4746 83.3574 17.4746ZM83.6514 11.4863C84.1937 11.4863 84.6016 11.3496 84.875 11.0762C85.1484 10.8027 85.2852 10.404 85.2852 9.87988C85.2852 9.31934 85.1462 8.90007 84.8682 8.62207C84.5902 8.33952 84.18 8.19824 83.6377 8.19824C83.1182 8.19824 82.7171 8.34408 82.4346 8.63574C82.1566 8.92285 82.0176 9.3444 82.0176 9.90039C82.0176 10.4108 82.1589 10.8027 82.4414 11.0762C82.724 11.3496 83.1273 11.4863 83.6514 11.4863ZM85.7705 4.6709C85.7386 5.04004 85.6338 5.36361 85.4561 5.6416C85.2829 5.91504 85.0413 6.12923 84.7314 6.28418C84.4215 6.43913 84.0479 6.5166 83.6104 6.5166C82.9404 6.5166 82.4323 6.35026 82.0859 6.01758C81.7441 5.6849 81.555 5.236 81.5186 4.6709H82.2295C82.2568 4.92611 82.3275 5.11979 82.4414 5.25195C82.5553 5.38411 82.7126 5.47526 82.9131 5.52539C83.1136 5.57096 83.3551 5.59375 83.6377 5.59375C83.8883 5.59375 84.1139 5.56868 84.3145 5.51855C84.515 5.46387 84.679 5.37044 84.8066 5.23828C84.9342 5.10156 85.014 4.91243 85.0459 4.6709H85.7705ZM89.9678 15H88.833V7.50781H89.9678V15Z" fill="#233F74"/>
<path d="M13.541 55.8135V54.3779C13.0169 54.3688 12.5156 54.3232 12.0371 54.2412C11.5632 54.1592 11.1758 54.0521 10.875 53.9199V52.8125C11.1895 52.9583 11.5928 53.0859 12.085 53.1953C12.5771 53.3047 13.0625 53.3639 13.541 53.373V50.3652C12.9395 50.1966 12.4404 50.0052 12.0439 49.791C11.652 49.5723 11.3581 49.3057 11.1621 48.9912C10.9661 48.6768 10.8682 48.2962 10.8682 47.8496C10.8682 47.3848 10.9775 46.9883 11.1963 46.6602C11.4196 46.3275 11.7318 46.0677 12.1328 45.8809C12.5339 45.694 13.0033 45.5869 13.541 45.5596V44.377H14.375V45.5459C14.8626 45.5596 15.307 45.6143 15.708 45.71C16.109 45.8011 16.4805 45.9196 16.8223 46.0654L16.4668 47.0156C16.1569 46.8926 15.8219 46.7878 15.4619 46.7012C15.1019 46.6146 14.7396 46.5553 14.375 46.5234V49.5107C14.9857 49.6885 15.4961 49.8776 15.9062 50.0781C16.321 50.2786 16.6331 50.527 16.8428 50.8232C17.0524 51.1195 17.1572 51.5023 17.1572 51.9717C17.1572 52.637 16.9134 53.1748 16.4258 53.585C15.9382 53.9906 15.2546 54.2367 14.375 54.3232V55.8135H13.541ZM14.375 53.3115C14.9355 53.2568 15.3525 53.1224 15.626 52.9082C15.904 52.6895 16.043 52.4023 16.043 52.0469C16.043 51.7917 15.9883 51.582 15.8789 51.418C15.7741 51.2539 15.6009 51.1126 15.3594 50.9941C15.1178 50.8711 14.7897 50.7549 14.375 50.6455V53.3115ZM13.541 49.2236V46.5508C13.1992 46.5736 12.9121 46.6374 12.6797 46.7422C12.4473 46.847 12.2718 46.9837 12.1533 47.1523C12.0394 47.321 11.9824 47.5215 11.9824 47.7539C11.9824 48.0228 12.0326 48.2484 12.1328 48.4307C12.2376 48.6084 12.404 48.7611 12.6318 48.8887C12.8643 49.0117 13.1673 49.1234 13.541 49.2236ZM25.4971 48.8887C26.1761 48.8887 26.7663 49.0049 27.2676 49.2373C27.7689 49.4652 28.1562 49.7979 28.4297 50.2354C28.7077 50.6729 28.8467 51.2038 28.8467 51.8281C28.8467 52.5117 28.6986 53.1019 28.4023 53.5986C28.1061 54.0908 27.68 54.4714 27.124 54.7402C26.568 55.0046 25.9027 55.1367 25.1279 55.1367C24.6084 55.1367 24.1253 55.0911 23.6787 55C23.2321 54.9089 22.8561 54.7721 22.5508 54.5898V53.5098C22.8835 53.7103 23.2868 53.8698 23.7607 53.9883C24.2347 54.1068 24.695 54.166 25.1416 54.166C25.6475 54.166 26.0895 54.0863 26.4678 53.9268C26.8506 53.7627 27.1468 53.5166 27.3564 53.1885C27.5706 52.8558 27.6777 52.4388 27.6777 51.9375C27.6777 51.2721 27.4727 50.7594 27.0625 50.3994C26.6569 50.0348 26.0143 49.8525 25.1348 49.8525C24.8522 49.8525 24.5423 49.8753 24.2051 49.9209C23.8678 49.9665 23.5898 50.0166 23.3711 50.0713L22.7969 49.6953L23.1797 45.0059H28.1494V46.0449H24.1504L23.8975 49.0596C24.0706 49.0231 24.2939 48.9867 24.5674 48.9502C24.8408 48.9092 25.1507 48.8887 25.4971 48.8887ZM36.9541 49.9893C36.9541 50.8005 36.8926 51.5251 36.7695 52.1631C36.6465 52.8011 36.4528 53.3411 36.1885 53.7832C35.9242 54.2253 35.5824 54.5625 35.1631 54.7949C34.7438 55.0228 34.2402 55.1367 33.6523 55.1367C32.9095 55.1367 32.2943 54.9339 31.8066 54.5283C31.3236 54.1227 30.9613 53.5371 30.7197 52.7715C30.4827 52.0013 30.3643 51.0739 30.3643 49.9893C30.3643 48.9229 30.4714 48.0068 30.6855 47.2412C30.9043 46.471 31.2552 45.8809 31.7383 45.4707C32.2214 45.056 32.8594 44.8486 33.6523 44.8486C34.4043 44.8486 35.0241 45.0537 35.5117 45.4639C35.9993 45.8695 36.3617 46.4574 36.5986 47.2275C36.8356 47.9932 36.9541 48.9137 36.9541 49.9893ZM31.5059 49.9893C31.5059 50.9189 31.5765 51.6937 31.7178 52.3135C31.859 52.9333 32.0869 53.3981 32.4014 53.708C32.7204 54.0133 33.1374 54.166 33.6523 54.166C34.1673 54.166 34.582 54.0133 34.8965 53.708C35.2155 53.4027 35.4456 52.9401 35.5869 52.3203C35.7327 51.7005 35.8057 50.9235 35.8057 49.9893C35.8057 49.0732 35.735 48.3076 35.5938 47.6924C35.4525 47.0726 35.2246 46.6077 34.9102 46.2979C34.5957 45.9834 34.1764 45.8262 33.6523 45.8262C33.1283 45.8262 32.709 45.9834 32.3945 46.2979C32.0801 46.6077 31.8522 47.0726 31.7109 47.6924C31.5742 48.3076 31.5059 49.0732 31.5059 49.9893ZM41.8691 51.7461V50.7344H45.2598V51.7461H41.8691ZM52.998 55.8135V54.3779C52.474 54.3688 51.9727 54.3232 51.4941 54.2412C51.0202 54.1592 50.6328 54.0521 50.332 53.9199V52.8125C50.6465 52.9583 51.0498 53.0859 51.542 53.1953C52.0342 53.3047 52.5195 53.3639 52.998 53.373V50.3652C52.3965 50.1966 51.8975 50.0052 51.501 49.791C51.109 49.5723 50.8151 49.3057 50.6191 48.9912C50.4232 48.6768 50.3252 48.2962 50.3252 47.8496C50.3252 47.3848 50.4346 46.9883 50.6533 46.6602C50.8766 46.3275 51.1888 46.0677 51.5898 45.8809C51.9909 45.694 52.4603 45.5869 52.998 45.5596V44.377H53.832V45.5459C54.3197 45.5596 54.764 45.6143 55.165 45.71C55.5661 45.8011 55.9375 45.9196 56.2793 46.0654L55.9238 47.0156C55.6139 46.8926 55.279 46.7878 54.9189 46.7012C54.5589 46.6146 54.1966 46.5553 53.832 46.5234V49.5107C54.4427 49.6885 54.9531 49.8776 55.3633 50.0781C55.778 50.2786 56.0902 50.527 56.2998 50.8232C56.5094 51.1195 56.6143 51.5023 56.6143 51.9717C56.6143 52.637 56.3704 53.1748 55.8828 53.585C55.3952 53.9906 54.7116 54.2367 53.832 54.3232V55.8135H52.998ZM53.832 53.3115C54.3926 53.2568 54.8096 53.1224 55.083 52.9082C55.361 52.6895 55.5 52.4023 55.5 52.0469C55.5 51.7917 55.4453 51.582 55.3359 51.418C55.2311 51.2539 55.0579 51.1126 54.8164 50.9941C54.5749 50.8711 54.2467 50.7549 53.832 50.6455V53.3115ZM52.998 49.2236V46.5508C52.6562 46.5736 52.3691 46.6374 52.1367 46.7422C51.9043 46.847 51.7288 46.9837 51.6104 47.1523C51.4964 47.321 51.4395 47.5215 51.4395 47.7539C51.4395 48.0228 51.4896 48.2484 51.5898 48.4307C51.6947 48.6084 51.861 48.7611 52.0889 48.8887C52.3213 49.0117 52.6243 49.1234 52.998 49.2236ZM66.0205 55H64.9131V47.918C64.9131 47.6491 64.9131 47.4189 64.9131 47.2275C64.9176 47.0316 64.9222 46.8538 64.9268 46.6943C64.9359 46.5303 64.9473 46.3639 64.9609 46.1953C64.8197 46.3411 64.6875 46.4665 64.5645 46.5713C64.4414 46.6715 64.2887 46.7969 64.1064 46.9473L62.9648 47.8633L62.3701 47.0908L65.0771 45.0059H66.0205V55ZM72.9658 48.8887C73.6449 48.8887 74.235 49.0049 74.7363 49.2373C75.2376 49.4652 75.625 49.7979 75.8984 50.2354C76.1764 50.6729 76.3154 51.2038 76.3154 51.8281C76.3154 52.5117 76.1673 53.1019 75.8711 53.5986C75.5749 54.0908 75.1488 54.4714 74.5928 54.7402C74.0368 55.0046 73.3714 55.1367 72.5967 55.1367C72.0771 55.1367 71.5941 55.0911 71.1475 55C70.7008 54.9089 70.3249 54.7721 70.0195 54.5898V53.5098C70.3522 53.7103 70.7555 53.8698 71.2295 53.9883C71.7035 54.1068 72.1637 54.166 72.6104 54.166C73.1162 54.166 73.5583 54.0863 73.9365 53.9268C74.3193 53.7627 74.6156 53.5166 74.8252 53.1885C75.0394 52.8558 75.1465 52.4388 75.1465 51.9375C75.1465 51.2721 74.9414 50.7594 74.5312 50.3994C74.1257 50.0348 73.4831 49.8525 72.6035 49.8525C72.321 49.8525 72.0111 49.8753 71.6738 49.9209C71.3366 49.9665 71.0586 50.0166 70.8398 50.0713L70.2656 49.6953L70.6484 45.0059H75.6182V46.0449H71.6191L71.3662 49.0596C71.5394 49.0231 71.7627 48.9867 72.0361 48.9502C72.3096 48.9092 72.6195 48.8887 72.9658 48.8887ZM84.4229 49.9893C84.4229 50.8005 84.3613 51.5251 84.2383 52.1631C84.1152 52.8011 83.9215 53.3411 83.6572 53.7832C83.3929 54.2253 83.0511 54.5625 82.6318 54.7949C82.2126 55.0228 81.709 55.1367 81.1211 55.1367C80.3783 55.1367 79.763 54.9339 79.2754 54.5283C78.7923 54.1227 78.43 53.5371 78.1885 52.7715C77.9515 52.0013 77.833 51.0739 77.833 49.9893C77.833 48.9229 77.9401 48.0068 78.1543 47.2412C78.373 46.471 78.724 45.8809 79.207 45.4707C79.6901 45.056 80.3281 44.8486 81.1211 44.8486C81.873 44.8486 82.4928 45.0537 82.9805 45.4639C83.4681 45.8695 83.8304 46.4574 84.0674 47.2275C84.3044 47.9932 84.4229 48.9137 84.4229 49.9893ZM78.9746 49.9893C78.9746 50.9189 79.0452 51.6937 79.1865 52.3135C79.3278 52.9333 79.5557 53.3981 79.8701 53.708C80.1891 54.0133 80.6061 54.166 81.1211 54.166C81.6361 54.166 82.0508 54.0133 82.3652 53.708C82.6842 53.4027 82.9144 52.9401 83.0557 52.3203C83.2015 51.7005 83.2744 50.9235 83.2744 49.9893C83.2744 49.0732 83.2038 48.3076 83.0625 47.6924C82.9212 47.0726 82.6934 46.6077 82.3789 46.2979C82.0645 45.9834 81.6452 45.8262 81.1211 45.8262C80.597 45.8262 80.1777 45.9834 79.8633 46.2979C79.5488 46.6077 79.321 47.0726 79.1797 47.6924C79.043 48.3076 78.9746 49.0732 78.9746 49.9893ZM92.4346 49.9893C92.4346 50.8005 92.373 51.5251 92.25 52.1631C92.127 52.8011 91.9333 53.3411 91.6689 53.7832C91.4046 54.2253 91.0628 54.5625 90.6436 54.7949C90.2243 55.0228 89.7207 55.1367 89.1328 55.1367C88.39 55.1367 87.7747 54.9339 87.2871 54.5283C86.804 54.1227 86.4417 53.5371 86.2002 52.7715C85.9632 52.0013 85.8447 51.0739 85.8447 49.9893C85.8447 48.9229 85.9518 48.0068 86.166 47.2412C86.3848 46.471 86.7357 45.8809 87.2188 45.4707C87.7018 45.056 88.3398 44.8486 89.1328 44.8486C89.8848 44.8486 90.5046 45.0537 90.9922 45.4639C91.4798 45.8695 91.8421 46.4574 92.0791 47.2275C92.3161 47.9932 92.4346 48.9137 92.4346 49.9893ZM86.9863 49.9893C86.9863 50.9189 87.057 51.6937 87.1982 52.3135C87.3395 52.9333 87.5674 53.3981 87.8818 53.708C88.2008 54.0133 88.6178 54.166 89.1328 54.166C89.6478 54.166 90.0625 54.0133 90.377 53.708C90.696 53.4027 90.9261 52.9401 91.0674 52.3203C91.2132 51.7005 91.2861 50.9235 91.2861 49.9893C91.2861 49.0732 91.2155 48.3076 91.0742 47.6924C90.9329 47.0726 90.7051 46.6077 90.3906 46.2979C90.0762 45.9834 89.6569 45.8262 89.1328 45.8262C88.6087 45.8262 88.1895 45.9834 87.875 46.2979C87.5605 46.6077 87.3327 47.0726 87.1914 47.6924C87.0547 48.3076 86.9863 49.0732 86.9863 49.9893Z" fill="#7C818D"/>
<g clip-path="url(#clip0_0_1358)">
<path d="M118.875 46.5461C119.107 46.5463 119.329 46.6386 119.493 46.8027L123.969 51.2781C124.104 51.4135 124.265 51.521 124.442 51.5943C124.619 51.6676 124.808 51.7054 125 51.7054C125.192 51.7054 125.381 51.6676 125.558 51.5943C125.735 51.521 125.896 51.4135 126.031 51.2781L130.504 46.8086C130.669 46.6492 130.89 46.561 131.119 46.563C131.349 46.565 131.568 46.657 131.73 46.8192C131.893 46.9815 131.985 47.2009 131.987 47.4304C131.989 47.6598 131.9 47.8808 131.741 48.0458L127.272 52.5153C126.67 53.1163 125.854 53.4538 125.003 53.4538C124.152 53.4538 123.336 53.1163 122.734 52.5153L118.259 48.04C118.137 47.9178 118.053 47.7621 118.02 47.5926C117.986 47.4231 118.003 47.2473 118.069 47.0875C118.134 46.9277 118.246 46.791 118.39 46.6946C118.533 46.5983 118.702 46.5466 118.875 46.5461V46.5461Z" fill="#7C818D"/>
</g>
<rect x="0.5" y="30.5" width="141" height="39" rx="7.5" stroke="#7C818D"/>
<defs>
<clipPath id="clip0_0_1358">
<rect width="14" height="14" fill="white" transform="translate(132 43) rotate(90)"/>
</clipPath>
</defs>
</svg>
