<svg width="81" height="70" viewBox="0 0 81 70" fill="none" xmlns="http://www.w3.org/2000/svg">
<path d="M5.7627 15L2.40625 6.1543H2.35156C2.36979 6.34115 2.38574 6.56901 2.39941 6.83789C2.41309 7.10677 2.42448 7.40072 2.43359 7.71973C2.44271 8.03418 2.44727 8.35547 2.44727 8.68359V15H1.36719V5.00586H3.08984L6.25488 13.3184H6.30273L9.51562 5.00586H11.2246V15H10.0762V8.60156C10.0762 8.30534 10.0807 8.00911 10.0898 7.71289C10.099 7.41211 10.1104 7.12956 10.124 6.86523C10.1377 6.59635 10.1514 6.36393 10.165 6.16797H10.1104L6.71289 15H5.7627ZM16.0918 7.37109C16.8118 7.37109 17.4408 7.51921 17.9785 7.81543C18.5163 8.1071 18.9333 8.53776 19.2295 9.10742C19.5257 9.67708 19.6738 10.3743 19.6738 11.1992C19.6738 12.0059 19.5371 12.7031 19.2637 13.291C18.9948 13.8789 18.612 14.3346 18.1152 14.6582C17.623 14.9772 17.042 15.1367 16.3721 15.1367C15.734 15.1367 15.1849 14.9954 14.7246 14.7129C14.2689 14.4303 13.9202 14.0339 13.6787 13.5234C13.4372 13.013 13.3164 12.4206 13.3164 11.7461V11.042H18.498C18.4798 10.167 18.2588 9.49935 17.835 9.03906C17.4157 8.57422 16.8187 8.3418 16.0439 8.3418C15.5745 8.3418 15.1576 8.38509 14.793 8.47168C14.4284 8.55371 14.0479 8.68132 13.6514 8.85449V7.84961C14.0296 7.68555 14.4056 7.56478 14.7793 7.4873C15.153 7.40983 15.5905 7.37109 16.0918 7.37109ZM18.4707 11.958H14.5127C14.5173 12.4001 14.5856 12.792 14.7178 13.1338C14.8499 13.471 15.0527 13.7354 15.3262 13.9268C15.6042 14.1136 15.9574 14.207 16.3857 14.207C16.9964 14.207 17.4818 14.0088 17.8418 13.6123C18.2018 13.2158 18.4115 12.6644 18.4707 11.958ZM22.7842 4.36328V7.54199C22.7842 7.72428 22.7796 7.90885 22.7705 8.0957C22.7614 8.27799 22.7454 8.44661 22.7227 8.60156H22.7979C22.9528 8.33724 23.1488 8.11621 23.3857 7.93848C23.6273 7.75618 23.9007 7.61947 24.2061 7.52832C24.5114 7.43262 24.835 7.38477 25.1768 7.38477C25.7783 7.38477 26.2796 7.48047 26.6807 7.67188C27.0863 7.86328 27.3893 8.15951 27.5898 8.56055C27.7949 8.96159 27.8975 9.48112 27.8975 10.1191V15H26.7764V10.1943C26.7764 9.56999 26.6328 9.10286 26.3457 8.79297C26.0632 8.48307 25.6279 8.32812 25.04 8.32812C24.484 8.32812 24.0397 8.43522 23.707 8.64941C23.3789 8.85905 23.1419 9.16895 22.9961 9.5791C22.8548 9.98926 22.7842 10.4906 22.7842 11.083V15H21.6494V4.36328H22.7842ZM35.082 12.9492C35.082 13.4277 34.9613 13.8311 34.7197 14.1592C34.4827 14.4827 34.141 14.7266 33.6943 14.8906C33.2523 15.0547 32.7236 15.1367 32.1084 15.1367C31.5843 15.1367 31.1309 15.0957 30.748 15.0137C30.3652 14.9316 30.0303 14.8154 29.7432 14.665V13.6191C30.0485 13.7695 30.4131 13.9062 30.8369 14.0293C31.2607 14.1523 31.6937 14.2139 32.1357 14.2139C32.7829 14.2139 33.2523 14.109 33.5439 13.8994C33.8356 13.6898 33.9814 13.4049 33.9814 13.0449C33.9814 12.8398 33.9222 12.6598 33.8037 12.5049C33.6898 12.3454 33.4961 12.1927 33.2227 12.0469C32.9492 11.8965 32.571 11.7324 32.0879 11.5547C31.6094 11.3724 31.1947 11.1924 30.8438 11.0146C30.4974 10.8324 30.2285 10.6113 30.0371 10.3516C29.8503 10.0918 29.7568 9.75456 29.7568 9.33984C29.7568 8.70638 30.012 8.22103 30.5225 7.88379C31.0374 7.54199 31.7119 7.37109 32.5459 7.37109C32.9971 7.37109 33.4186 7.41667 33.8105 7.50781C34.207 7.5944 34.5762 7.71289 34.918 7.86328L34.5352 8.77246C34.2253 8.6403 33.8949 8.52865 33.5439 8.4375C33.193 8.34635 32.8353 8.30078 32.4707 8.30078C31.9466 8.30078 31.5433 8.38737 31.2607 8.56055C30.9827 8.73372 30.8438 8.9707 30.8438 9.27148C30.8438 9.50391 30.9076 9.69531 31.0352 9.8457C31.1673 9.99609 31.377 10.1374 31.6641 10.2695C31.9512 10.4017 32.3294 10.5566 32.7988 10.7344C33.2682 10.9076 33.6738 11.0876 34.0156 11.2744C34.3574 11.4567 34.6195 11.68 34.8018 11.9443C34.9886 12.2041 35.082 12.5391 35.082 12.9492ZM43.0938 7.50781V15H42.1641L42 13.9473H41.9385C41.7835 14.207 41.583 14.4258 41.3369 14.6035C41.0908 14.7812 40.8128 14.9134 40.5029 15C40.1976 15.0911 39.8717 15.1367 39.5254 15.1367C38.9329 15.1367 38.4362 15.041 38.0352 14.8496C37.6341 14.6582 37.3311 14.362 37.126 13.9609C36.9255 13.5599 36.8252 13.0449 36.8252 12.416V7.50781H37.9736V12.334C37.9736 12.9583 38.1149 13.4255 38.3975 13.7354C38.68 14.0407 39.1107 14.1934 39.6895 14.1934C40.2454 14.1934 40.6875 14.0885 41.0156 13.8789C41.3483 13.6693 41.5876 13.3617 41.7334 12.9561C41.8792 12.5459 41.9521 12.0446 41.9521 11.4521V7.50781H43.0938ZM46.6348 15H45.4932V4.36328H46.6348V15ZM57.5176 12.9492C57.5176 13.4277 57.3968 13.8311 57.1553 14.1592C56.9183 14.4827 56.5765 14.7266 56.1299 14.8906C55.6878 15.0547 55.1592 15.1367 54.5439 15.1367C54.0199 15.1367 53.5664 15.0957 53.1836 15.0137C52.8008 14.9316 52.4658 14.8154 52.1787 14.665V13.6191C52.484 13.7695 52.8486 13.9062 53.2725 14.0293C53.6963 14.1523 54.1292 14.2139 54.5713 14.2139C55.2184 14.2139 55.6878 14.109 55.9795 13.8994C56.2712 13.6898 56.417 13.4049 56.417 13.0449C56.417 12.8398 56.3577 12.6598 56.2393 12.5049C56.1253 12.3454 55.9316 12.1927 55.6582 12.0469C55.3848 11.8965 55.0065 11.7324 54.5234 11.5547C54.0449 11.3724 53.6302 11.1924 53.2793 11.0146C52.9329 10.8324 52.6641 10.6113 52.4727 10.3516C52.2858 10.0918 52.1924 9.75456 52.1924 9.33984C52.1924 8.70638 52.4476 8.22103 52.958 7.88379C53.473 7.54199 54.1475 7.37109 54.9814 7.37109C55.4326 7.37109 55.8542 7.41667 56.2461 7.50781C56.6426 7.5944 57.0117 7.71289 57.3535 7.86328L56.9707 8.77246C56.6608 8.6403 56.3304 8.52865 55.9795 8.4375C55.6286 8.34635 55.2708 8.30078 54.9062 8.30078C54.3822 8.30078 53.9788 8.38737 53.6963 8.56055C53.4183 8.73372 53.2793 8.9707 53.2793 9.27148C53.2793 9.50391 53.3431 9.69531 53.4707 9.8457C53.6029 9.99609 53.8125 10.1374 54.0996 10.2695C54.3867 10.4017 54.765 10.5566 55.2344 10.7344C55.7038 10.9076 56.1094 11.0876 56.4512 11.2744C56.793 11.4567 57.055 11.68 57.2373 11.9443C57.4242 12.2041 57.5176 12.5391 57.5176 12.9492ZM62.1455 7.38477C63.0387 7.38477 63.7018 7.58529 64.1348 7.98633C64.5677 8.38737 64.7842 9.02767 64.7842 9.90723V15H63.957L63.7383 13.8926H63.6836C63.474 14.166 63.2552 14.3962 63.0273 14.583C62.7995 14.7653 62.5352 14.9043 62.2344 15C61.9382 15.0911 61.5736 15.1367 61.1406 15.1367C60.6849 15.1367 60.2793 15.057 59.9238 14.8975C59.5729 14.738 59.2949 14.4964 59.0898 14.1729C58.8893 13.8493 58.7891 13.4391 58.7891 12.9424C58.7891 12.195 59.0853 11.6208 59.6777 11.2197C60.2702 10.8187 61.1725 10.5999 62.3848 10.5635L63.6768 10.5088V10.0508C63.6768 9.40365 63.5378 8.9502 63.2598 8.69043C62.9818 8.43066 62.5898 8.30078 62.084 8.30078C61.6921 8.30078 61.3184 8.35775 60.9629 8.47168C60.6074 8.58561 60.2702 8.72005 59.9512 8.875L59.6025 8.01367C59.9398 7.84049 60.3271 7.69238 60.7646 7.56934C61.2021 7.44629 61.6624 7.38477 62.1455 7.38477ZM63.6631 11.3086L62.5215 11.3564C61.5872 11.3929 60.9287 11.5456 60.5459 11.8145C60.1631 12.0833 59.9717 12.4639 59.9717 12.9561C59.9717 13.3844 60.1016 13.7012 60.3613 13.9062C60.6211 14.1113 60.9652 14.2139 61.3936 14.2139C62.0589 14.2139 62.6035 14.0293 63.0273 13.6602C63.4512 13.291 63.6631 12.7373 63.6631 11.999V11.3086ZM65.9395 7.50781H67.1562L68.8105 11.8555C68.9062 12.1107 68.9951 12.3568 69.0771 12.5938C69.1592 12.8262 69.2321 13.0495 69.2959 13.2637C69.3597 13.4779 69.4098 13.6852 69.4463 13.8857H69.4941C69.5579 13.6579 69.6491 13.3594 69.7676 12.9902C69.8861 12.6165 70.0137 12.236 70.1504 11.8486L71.7158 7.50781H72.9395L69.6787 16.1006C69.5055 16.5609 69.3027 16.9619 69.0703 17.3037C68.8424 17.6455 68.5645 17.9076 68.2363 18.0898C67.9082 18.2767 67.5117 18.3701 67.0469 18.3701C66.8327 18.3701 66.6436 18.3564 66.4795 18.3291C66.3154 18.3063 66.1742 18.279 66.0557 18.2471V17.3379C66.1559 17.3607 66.2767 17.3812 66.418 17.3994C66.5638 17.4176 66.7142 17.4268 66.8691 17.4268C67.1517 17.4268 67.3955 17.3721 67.6006 17.2627C67.8102 17.1579 67.9902 17.0029 68.1406 16.7979C68.291 16.5928 68.4209 16.349 68.5303 16.0664L68.9404 15.0137L65.9395 7.50781ZM75.2705 15H74.1357V7.50781H75.2705V15Z" fill="#233F74"/>
<path d="M17.0068 52.3408C17.0068 52.9333 16.8587 53.4391 16.5625 53.8584C16.2708 54.2731 15.8607 54.5898 15.332 54.8086C14.8034 55.0273 14.1813 55.1367 13.4658 55.1367C13.0876 55.1367 12.7298 55.1185 12.3926 55.082C12.0553 55.0456 11.7454 54.9932 11.4629 54.9248C11.1803 54.8564 10.932 54.7721 10.7178 54.6719V53.5576C11.0596 53.6989 11.4766 53.8311 11.9688 53.9541C12.4609 54.0726 12.9759 54.1318 13.5137 54.1318C14.015 54.1318 14.4388 54.0658 14.7852 53.9336C15.1315 53.7969 15.3936 53.6032 15.5713 53.3525C15.7536 53.0973 15.8447 52.792 15.8447 52.4365C15.8447 52.0947 15.7695 51.8099 15.6191 51.582C15.4688 51.3496 15.2181 51.14 14.8672 50.9531C14.5208 50.7617 14.0469 50.5589 13.4453 50.3447C13.0215 50.1943 12.6478 50.0303 12.3242 49.8525C12.0007 49.6702 11.7295 49.4652 11.5107 49.2373C11.292 49.0094 11.1257 48.7451 11.0117 48.4443C10.9023 48.1436 10.8477 47.7995 10.8477 47.4121C10.8477 46.8789 10.9821 46.4232 11.251 46.0449C11.5244 45.6621 11.9004 45.3704 12.3789 45.1699C12.862 44.9648 13.4157 44.8623 14.04 44.8623C14.5732 44.8623 15.0654 44.9124 15.5166 45.0127C15.9723 45.113 16.3893 45.2474 16.7676 45.416L16.4053 46.4141C16.0452 46.2637 15.6624 46.1383 15.2568 46.0381C14.8558 45.9378 14.4411 45.8877 14.0127 45.8877C13.5843 45.8877 13.222 45.9515 12.9258 46.0791C12.6341 46.2021 12.4108 46.3776 12.2559 46.6055C12.1009 46.8333 12.0234 47.1045 12.0234 47.4189C12.0234 47.7699 12.0964 48.0615 12.2422 48.2939C12.3926 48.5264 12.6296 48.7337 12.9531 48.916C13.2812 49.0938 13.7142 49.2806 14.252 49.4766C14.8398 49.6908 15.3389 49.9186 15.749 50.1602C16.1592 50.3971 16.4714 50.6888 16.6855 51.0352C16.8997 51.377 17.0068 51.8122 17.0068 52.3408ZM21.7646 47.3711C22.4027 47.3711 22.9495 47.5124 23.4053 47.7949C23.861 48.0775 24.2096 48.474 24.4512 48.9844C24.6927 49.4902 24.8135 50.0827 24.8135 50.7617V51.4658H19.6387C19.6523 52.3454 19.8711 53.0153 20.2949 53.4756C20.7188 53.9359 21.3158 54.166 22.0859 54.166C22.5599 54.166 22.9792 54.1227 23.3438 54.0361C23.7083 53.9495 24.0866 53.8219 24.4785 53.6533V54.6514C24.1003 54.82 23.7243 54.943 23.3506 55.0205C22.9814 55.098 22.5439 55.1367 22.0381 55.1367C21.318 55.1367 20.6891 54.9909 20.1514 54.6992C19.6182 54.403 19.2035 53.9701 18.9072 53.4004C18.611 52.8307 18.4629 52.1335 18.4629 51.3086C18.4629 50.502 18.5973 49.8047 18.8662 49.2168C19.1396 48.6243 19.5225 48.1686 20.0146 47.8496C20.5114 47.5306 21.0947 47.3711 21.7646 47.3711ZM21.751 48.3008C21.1449 48.3008 20.6618 48.499 20.3018 48.8955C19.9417 49.292 19.7275 49.8457 19.6592 50.5566H23.624C23.6195 50.11 23.5488 49.7181 23.4121 49.3809C23.2799 49.0391 23.0771 48.7747 22.8037 48.5879C22.5303 48.3965 22.1794 48.3008 21.751 48.3008ZM29.7422 55.1367C29.0677 55.1367 28.473 54.9977 27.958 54.7197C27.443 54.4417 27.042 54.0179 26.7549 53.4482C26.4678 52.8786 26.3242 52.1608 26.3242 51.2949C26.3242 50.388 26.4746 49.6475 26.7754 49.0732C27.0807 48.4945 27.5 48.0661 28.0332 47.7881C28.5664 47.5101 29.1725 47.3711 29.8516 47.3711C30.2253 47.3711 30.5853 47.4098 30.9316 47.4873C31.2826 47.5602 31.5697 47.6536 31.793 47.7676L31.4512 48.7178C31.2233 48.6266 30.959 48.5446 30.6582 48.4717C30.362 48.3988 30.084 48.3623 29.8242 48.3623C29.3047 48.3623 28.8717 48.474 28.5254 48.6973C28.1836 48.9206 27.9261 49.2487 27.7529 49.6816C27.5843 50.1146 27.5 50.6478 27.5 51.2812C27.5 51.8874 27.582 52.4046 27.7461 52.833C27.9147 53.2614 28.1631 53.5895 28.4912 53.8174C28.8239 54.0407 29.2386 54.1523 29.7354 54.1523C30.1318 54.1523 30.4896 54.1113 30.8086 54.0293C31.1276 53.9427 31.417 53.8424 31.6768 53.7285V54.7402C31.4261 54.8678 31.1458 54.9658 30.8359 55.0342C30.5306 55.1025 30.166 55.1367 29.7422 55.1367ZM30.8564 56.9551C30.8564 57.3971 30.6855 57.7412 30.3438 57.9873C30.002 58.238 29.5007 58.3633 28.8398 58.3633C28.6986 58.3633 28.5641 58.3542 28.4365 58.3359C28.3089 58.3223 28.2064 58.3063 28.1289 58.2881V57.5703C28.2155 57.5885 28.3271 57.6045 28.4639 57.6182C28.6006 57.6318 28.7373 57.6387 28.874 57.6387C29.2158 57.6387 29.4779 57.5885 29.6602 57.4883C29.8424 57.388 29.9336 57.2194 29.9336 56.9824C29.9336 56.7318 29.8105 56.5495 29.5645 56.4355C29.3229 56.3216 29.013 56.2441 28.6348 56.2031L29.2432 55H30.002L29.6328 55.7656C29.8607 55.8112 30.0658 55.8818 30.248 55.9775C30.4349 56.0732 30.583 56.2008 30.6924 56.3604C30.8018 56.5199 30.8564 56.7181 30.8564 56.9551Z" fill="#7C818D"/>
<g clip-path="url(#clip0_0_1357)">
<path d="M57.875 46.5461C58.107 46.5463 58.3294 46.6386 58.4933 46.8027L62.9687 51.2781C63.1041 51.4135 63.2649 51.521 63.4418 51.5943C63.6188 51.6676 63.8085 51.7054 64 51.7054C64.1916 51.7054 64.3812 51.6676 64.5582 51.5943C64.7351 51.521 64.8959 51.4135 65.0313 51.2781L69.5038 46.8086C69.6688 46.6492 69.8898 46.561 70.1192 46.563C70.3487 46.565 70.5681 46.657 70.7304 46.8192C70.8926 46.9815 70.9846 47.2009 70.9866 47.4304C70.9886 47.6598 70.9004 47.8808 70.741 48.0458L66.2721 52.5153C65.6699 53.1163 64.854 53.4538 64.0032 53.4538C63.1525 53.4538 62.3365 53.1163 61.7343 52.5153L57.259 48.04C57.1367 47.9178 57.0534 47.7621 57.0195 47.5926C56.9856 47.4231 57.0027 47.2473 57.0686 47.0875C57.1345 46.9277 57.2463 46.791 57.3898 46.6946C57.5333 46.5983 57.7021 46.5466 57.875 46.5461V46.5461Z" fill="#7C818D"/>
</g>
<rect x="0.5" y="30.5" width="80" height="39" rx="7.5" stroke="#7C818D"/>
<defs>
<clipPath id="clip0_0_1357">
<rect width="14" height="14" fill="white" transform="translate(71 43) rotate(90)"/>
</clipPath>
</defs>
</svg>
