<svg width="81" height="70" viewBox="0 0 81 70" fill="none" xmlns="http://www.w3.org/2000/svg">
<path d="M7.00684 12.3408C7.00684 12.9333 6.85872 13.4391 6.5625 13.8584C6.27083 14.2731 5.86068 14.5898 5.33203 14.8086C4.80339 15.0273 4.18132 15.1367 3.46582 15.1367C3.08757 15.1367 2.72982 15.1185 2.39258 15.082C2.05534 15.0456 1.74544 14.9932 1.46289 14.9248C1.18034 14.8564 0.931966 14.7721 0.717773 14.6719V13.5576C1.05957 13.6989 1.47656 13.8311 1.96875 13.9541C2.46094 14.0726 2.97591 14.1318 3.51367 14.1318C4.01497 14.1318 4.4388 14.0658 4.78516 13.9336C5.13151 13.7969 5.39355 13.6032 5.57129 13.3525C5.75358 13.0973 5.84473 12.792 5.84473 12.4365C5.84473 12.0947 5.76953 11.8099 5.61914 11.582C5.46875 11.3496 5.2181 11.14 4.86719 10.9531C4.52083 10.7617 4.04688 10.5589 3.44531 10.3447C3.02148 10.1943 2.64779 10.0303 2.32422 9.85254C2.00065 9.67025 1.72949 9.46517 1.51074 9.2373C1.29199 9.00944 1.12565 8.74512 1.01172 8.44434C0.902344 8.14355 0.847656 7.79948 0.847656 7.41211C0.847656 6.87891 0.982096 6.42318 1.25098 6.04492C1.52441 5.66211 1.90039 5.37044 2.37891 5.16992C2.86198 4.96484 3.41569 4.8623 4.04004 4.8623C4.57324 4.8623 5.06543 4.91243 5.5166 5.0127C5.97233 5.11296 6.38932 5.2474 6.76758 5.41602L6.40527 6.41406C6.04525 6.26367 5.66243 6.13835 5.25684 6.03809C4.85579 5.93783 4.44108 5.8877 4.0127 5.8877C3.58431 5.8877 3.22201 5.9515 2.92578 6.0791C2.63411 6.20215 2.41081 6.3776 2.25586 6.60547C2.10091 6.83333 2.02344 7.10449 2.02344 7.41895C2.02344 7.76986 2.09635 8.06152 2.24219 8.29395C2.39258 8.52637 2.62956 8.73372 2.95312 8.91602C3.28125 9.09375 3.71419 9.2806 4.25195 9.47656C4.83984 9.69076 5.33887 9.91862 5.74902 10.1602C6.15918 10.3971 6.47135 10.6888 6.68555 11.0352C6.89974 11.377 7.00684 11.8122 7.00684 12.3408ZM11.2998 14.207C11.4867 14.207 11.6781 14.1911 11.874 14.1592C12.07 14.1273 12.2295 14.0885 12.3525 14.043V14.9248C12.2204 14.984 12.0358 15.0342 11.7988 15.0752C11.5664 15.1162 11.3385 15.1367 11.1152 15.1367C10.7188 15.1367 10.3587 15.0684 10.0352 14.9316C9.71159 14.7904 9.45182 14.5534 9.25586 14.2207C9.06445 13.888 8.96875 13.4277 8.96875 12.8398V8.39648H7.90234V7.84277L8.97559 7.39844L9.42676 5.77148H10.1104V7.50781H12.3047V8.39648H10.1104V12.8057C10.1104 13.2751 10.2174 13.626 10.4316 13.8584C10.6504 14.0908 10.9398 14.207 11.2998 14.207ZM16.6729 7.38477C17.5661 7.38477 18.2292 7.58529 18.6621 7.98633C19.0951 8.38737 19.3115 9.02767 19.3115 9.90723V15H18.4844L18.2656 13.8926H18.2109C18.0013 14.166 17.7826 14.3962 17.5547 14.583C17.3268 14.7653 17.0625 14.9043 16.7617 15C16.4655 15.0911 16.1009 15.1367 15.668 15.1367C15.2122 15.1367 14.8066 15.057 14.4512 14.8975C14.1003 14.738 13.8223 14.4964 13.6172 14.1729C13.4167 13.8493 13.3164 13.4391 13.3164 12.9424C13.3164 12.195 13.6126 11.6208 14.2051 11.2197C14.7975 10.8187 15.6999 10.5999 16.9121 10.5635L18.2041 10.5088V10.0508C18.2041 9.40365 18.0651 8.9502 17.7871 8.69043C17.5091 8.43066 17.1172 8.30078 16.6113 8.30078C16.2194 8.30078 15.8457 8.35775 15.4902 8.47168C15.1348 8.58561 14.7975 8.72005 14.4785 8.875L14.1299 8.01367C14.4671 7.84049 14.8545 7.69238 15.292 7.56934C15.7295 7.44629 16.1898 7.38477 16.6729 7.38477ZM18.1904 11.3086L17.0488 11.3564C16.1146 11.3929 15.4561 11.5456 15.0732 11.8145C14.6904 12.0833 14.499 12.4639 14.499 12.9561C14.499 13.3844 14.6289 13.7012 14.8887 13.9062C15.1484 14.1113 15.4925 14.2139 15.9209 14.2139C16.5863 14.2139 17.1309 14.0293 17.5547 13.6602C17.9785 13.291 18.1904 12.7373 18.1904 11.999V11.3086ZM24.0693 14.207C24.2562 14.207 24.4476 14.1911 24.6436 14.1592C24.8395 14.1273 24.999 14.0885 25.1221 14.043V14.9248C24.9899 14.984 24.8053 15.0342 24.5684 15.0752C24.3359 15.1162 24.1081 15.1367 23.8848 15.1367C23.4883 15.1367 23.1283 15.0684 22.8047 14.9316C22.4811 14.7904 22.2214 14.5534 22.0254 14.2207C21.834 13.888 21.7383 13.4277 21.7383 12.8398V8.39648H20.6719V7.84277L21.7451 7.39844L22.1963 5.77148H22.8799V7.50781H25.0742V8.39648H22.8799V12.8057C22.8799 13.2751 22.987 13.626 23.2012 13.8584C23.4199 14.0908 23.7093 14.207 24.0693 14.207ZM32.8262 7.50781V15H31.8965L31.7324 13.9473H31.6709C31.516 14.207 31.3154 14.4258 31.0693 14.6035C30.8232 14.7812 30.5452 14.9134 30.2354 15C29.93 15.0911 29.6042 15.1367 29.2578 15.1367C28.6654 15.1367 28.1686 15.041 27.7676 14.8496C27.3665 14.6582 27.0635 14.362 26.8584 13.9609C26.6579 13.5599 26.5576 13.0449 26.5576 12.416V7.50781H27.7061V12.334C27.7061 12.9583 27.8473 13.4255 28.1299 13.7354C28.4124 14.0407 28.8431 14.1934 29.4219 14.1934C29.9779 14.1934 30.4199 14.0885 30.748 13.8789C31.0807 13.6693 31.32 13.3617 31.4658 12.9561C31.6117 12.5459 31.6846 12.0446 31.6846 11.4521V7.50781H32.8262ZM40.0723 12.9492C40.0723 13.4277 39.9515 13.8311 39.71 14.1592C39.473 14.4827 39.1312 14.7266 38.6846 14.8906C38.2425 15.0547 37.7139 15.1367 37.0986 15.1367C36.5745 15.1367 36.1211 15.0957 35.7383 15.0137C35.3555 14.9316 35.0205 14.8154 34.7334 14.665V13.6191C35.0387 13.7695 35.4033 13.9062 35.8271 14.0293C36.251 14.1523 36.6839 14.2139 37.126 14.2139C37.7731 14.2139 38.2425 14.109 38.5342 13.8994C38.8258 13.6898 38.9717 13.4049 38.9717 13.0449C38.9717 12.8398 38.9124 12.6598 38.7939 12.5049C38.68 12.3454 38.4863 12.1927 38.2129 12.0469C37.9395 11.8965 37.5612 11.7324 37.0781 11.5547C36.5996 11.3724 36.1849 11.1924 35.834 11.0146C35.4876 10.8324 35.2188 10.6113 35.0273 10.3516C34.8405 10.0918 34.7471 9.75456 34.7471 9.33984C34.7471 8.70638 35.0023 8.22103 35.5127 7.88379C36.0277 7.54199 36.7021 7.37109 37.5361 7.37109C37.9873 7.37109 38.4089 7.41667 38.8008 7.50781C39.1973 7.5944 39.5664 7.71289 39.9082 7.86328L39.5254 8.77246C39.2155 8.6403 38.8851 8.52865 38.5342 8.4375C38.1833 8.34635 37.8255 8.30078 37.4609 8.30078C36.9368 8.30078 36.5335 8.38737 36.251 8.56055C35.973 8.73372 35.834 8.9707 35.834 9.27148C35.834 9.50391 35.8978 9.69531 36.0254 9.8457C36.1576 9.99609 36.3672 10.1374 36.6543 10.2695C36.9414 10.4017 37.3197 10.5566 37.7891 10.7344C38.2585 10.9076 38.6641 11.0876 39.0059 11.2744C39.3477 11.4567 39.6097 11.68 39.792 11.9443C39.9788 12.2041 40.0723 12.5391 40.0723 12.9492Z" fill="#233F74"/>
<path d="M17.0068 52.3408C17.0068 52.9333 16.8587 53.4391 16.5625 53.8584C16.2708 54.2731 15.8607 54.5898 15.332 54.8086C14.8034 55.0273 14.1813 55.1367 13.4658 55.1367C13.0876 55.1367 12.7298 55.1185 12.3926 55.082C12.0553 55.0456 11.7454 54.9932 11.4629 54.9248C11.1803 54.8564 10.932 54.7721 10.7178 54.6719V53.5576C11.0596 53.6989 11.4766 53.8311 11.9688 53.9541C12.4609 54.0726 12.9759 54.1318 13.5137 54.1318C14.015 54.1318 14.4388 54.0658 14.7852 53.9336C15.1315 53.7969 15.3936 53.6032 15.5713 53.3525C15.7536 53.0973 15.8447 52.792 15.8447 52.4365C15.8447 52.0947 15.7695 51.8099 15.6191 51.582C15.4688 51.3496 15.2181 51.14 14.8672 50.9531C14.5208 50.7617 14.0469 50.5589 13.4453 50.3447C13.0215 50.1943 12.6478 50.0303 12.3242 49.8525C12.0007 49.6702 11.7295 49.4652 11.5107 49.2373C11.292 49.0094 11.1257 48.7451 11.0117 48.4443C10.9023 48.1436 10.8477 47.7995 10.8477 47.4121C10.8477 46.8789 10.9821 46.4232 11.251 46.0449C11.5244 45.6621 11.9004 45.3704 12.3789 45.1699C12.862 44.9648 13.4157 44.8623 14.04 44.8623C14.5732 44.8623 15.0654 44.9124 15.5166 45.0127C15.9723 45.113 16.3893 45.2474 16.7676 45.416L16.4053 46.4141C16.0452 46.2637 15.6624 46.1383 15.2568 46.0381C14.8558 45.9378 14.4411 45.8877 14.0127 45.8877C13.5843 45.8877 13.222 45.9515 12.9258 46.0791C12.6341 46.2021 12.4108 46.3776 12.2559 46.6055C12.1009 46.8333 12.0234 47.1045 12.0234 47.4189C12.0234 47.7699 12.0964 48.0615 12.2422 48.2939C12.3926 48.5264 12.6296 48.7337 12.9531 48.916C13.2812 49.0938 13.7142 49.2806 14.252 49.4766C14.8398 49.6908 15.3389 49.9186 15.749 50.1602C16.1592 50.3971 16.4714 50.6888 16.6855 51.0352C16.8997 51.377 17.0068 51.8122 17.0068 52.3408ZM21.7646 47.3711C22.4027 47.3711 22.9495 47.5124 23.4053 47.7949C23.861 48.0775 24.2096 48.474 24.4512 48.9844C24.6927 49.4902 24.8135 50.0827 24.8135 50.7617V51.4658H19.6387C19.6523 52.3454 19.8711 53.0153 20.2949 53.4756C20.7188 53.9359 21.3158 54.166 22.0859 54.166C22.5599 54.166 22.9792 54.1227 23.3438 54.0361C23.7083 53.9495 24.0866 53.8219 24.4785 53.6533V54.6514C24.1003 54.82 23.7243 54.943 23.3506 55.0205C22.9814 55.098 22.5439 55.1367 22.0381 55.1367C21.318 55.1367 20.6891 54.9909 20.1514 54.6992C19.6182 54.403 19.2035 53.9701 18.9072 53.4004C18.611 52.8307 18.4629 52.1335 18.4629 51.3086C18.4629 50.502 18.5973 49.8047 18.8662 49.2168C19.1396 48.6243 19.5225 48.1686 20.0146 47.8496C20.5114 47.5306 21.0947 47.3711 21.7646 47.3711ZM21.751 48.3008C21.1449 48.3008 20.6618 48.499 20.3018 48.8955C19.9417 49.292 19.7275 49.8457 19.6592 50.5566H23.624C23.6195 50.11 23.5488 49.7181 23.4121 49.3809C23.2799 49.0391 23.0771 48.7747 22.8037 48.5879C22.5303 48.3965 22.1794 48.3008 21.751 48.3008ZM29.7422 55.1367C29.0677 55.1367 28.473 54.9977 27.958 54.7197C27.443 54.4417 27.042 54.0179 26.7549 53.4482C26.4678 52.8786 26.3242 52.1608 26.3242 51.2949C26.3242 50.388 26.4746 49.6475 26.7754 49.0732C27.0807 48.4945 27.5 48.0661 28.0332 47.7881C28.5664 47.5101 29.1725 47.3711 29.8516 47.3711C30.2253 47.3711 30.5853 47.4098 30.9316 47.4873C31.2826 47.5602 31.5697 47.6536 31.793 47.7676L31.4512 48.7178C31.2233 48.6266 30.959 48.5446 30.6582 48.4717C30.362 48.3988 30.084 48.3623 29.8242 48.3623C29.3047 48.3623 28.8717 48.474 28.5254 48.6973C28.1836 48.9206 27.9261 49.2487 27.7529 49.6816C27.5843 50.1146 27.5 50.6478 27.5 51.2812C27.5 51.8874 27.582 52.4046 27.7461 52.833C27.9147 53.2614 28.1631 53.5895 28.4912 53.8174C28.8239 54.0407 29.2386 54.1523 29.7354 54.1523C30.1318 54.1523 30.4896 54.1113 30.8086 54.0293C31.1276 53.9427 31.417 53.8424 31.6768 53.7285V54.7402C31.4261 54.8678 31.1458 54.9658 30.8359 55.0342C30.5306 55.1025 30.166 55.1367 29.7422 55.1367ZM30.8564 56.9551C30.8564 57.3971 30.6855 57.7412 30.3438 57.9873C30.002 58.238 29.5007 58.3633 28.8398 58.3633C28.6986 58.3633 28.5641 58.3542 28.4365 58.3359C28.3089 58.3223 28.2064 58.3063 28.1289 58.2881V57.5703C28.2155 57.5885 28.3271 57.6045 28.4639 57.6182C28.6006 57.6318 28.7373 57.6387 28.874 57.6387C29.2158 57.6387 29.4779 57.5885 29.6602 57.4883C29.8424 57.388 29.9336 57.2194 29.9336 56.9824C29.9336 56.7318 29.8105 56.5495 29.5645 56.4355C29.3229 56.3216 29.013 56.2441 28.6348 56.2031L29.2432 55H30.002L29.6328 55.7656C29.8607 55.8112 30.0658 55.8818 30.248 55.9775C30.4349 56.0732 30.583 56.2008 30.6924 56.3604C30.8018 56.5199 30.8564 56.7181 30.8564 56.9551Z" fill="#7C818D"/>
<g clip-path="url(#clip0_0_1359)">
<path d="M57.875 46.5461C58.107 46.5463 58.3294 46.6386 58.4933 46.8027L62.9687 51.2781C63.1041 51.4135 63.2649 51.521 63.4418 51.5943C63.6188 51.6676 63.8085 51.7054 64 51.7054C64.1916 51.7054 64.3812 51.6676 64.5582 51.5943C64.7351 51.521 64.8959 51.4135 65.0313 51.2781L69.5038 46.8086C69.6688 46.6492 69.8898 46.561 70.1192 46.563C70.3487 46.565 70.5681 46.657 70.7304 46.8192C70.8926 46.9815 70.9846 47.2009 70.9866 47.4304C70.9886 47.6598 70.9004 47.8808 70.741 48.0458L66.2721 52.5153C65.6699 53.1163 64.854 53.4538 64.0032 53.4538C63.1525 53.4538 62.3365 53.1163 61.7343 52.5153L57.259 48.04C57.1367 47.9178 57.0534 47.7621 57.0195 47.5926C56.9856 47.4231 57.0027 47.2473 57.0686 47.0875C57.1345 46.9277 57.2463 46.791 57.3898 46.6946C57.5333 46.5983 57.7021 46.5466 57.875 46.5461V46.5461Z" fill="#7C818D"/>
</g>
<rect x="0.5" y="30.5" width="80" height="39" rx="7.5" stroke="#7C818D"/>
<defs>
<clipPath id="clip0_0_1359">
<rect width="14" height="14" fill="white" transform="translate(71 43) rotate(90)"/>
</clipPath>
</defs>
</svg>
